<mxfile host="app.diagrams.net" agent="Mozilla/5.0 (X11; Linux x86_64) AppleWebKit/537.36 (KHTML, like Gecko) Chrome/138.0.0.0 Safari/537.36" version="28.2.5">
  <diagram name="第 1 页" id="1ilw-WLotnf_4WlkD7nu">
    <mxGraphModel dx="2036" dy="1101" grid="1" gridSize="10" guides="1" tooltips="1" connect="1" arrows="1" fold="1" page="1" pageScale="1" pageWidth="2339" pageHeight="3300" math="0" shadow="0">
      <root>
        <mxCell id="0" />
        <mxCell id="1" parent="0" />
        <mxCell id="AxJ9_XIlFzwpc8d086Lr-2" style="edgeStyle=orthogonalEdgeStyle;rounded=0;orthogonalLoop=1;jettySize=auto;html=1;exitX=1;exitY=0.5;exitDx=0;exitDy=0;entryX=0;entryY=0.5;entryDx=0;entryDy=0;" parent="1" source="A_ogrFLxcLxrX9YmPOqr-2" target="AxJ9_XIlFzwpc8d086Lr-1" edge="1">
          <mxGeometry relative="1" as="geometry" />
        </mxCell>
        <mxCell id="A_ogrFLxcLxrX9YmPOqr-2" value="6.16已经结束，内核开启6.17新版本" style="rounded=1;whiteSpace=wrap;html=1;fillColor=none;" parent="1" vertex="1">
          <mxGeometry x="70" y="130" width="120" height="50" as="geometry" />
        </mxCell>
        <mxCell id="AxJ9_XIlFzwpc8d086Lr-4" style="edgeStyle=orthogonalEdgeStyle;rounded=0;orthogonalLoop=1;jettySize=auto;html=1;exitX=1;exitY=0.5;exitDx=0;exitDy=0;entryX=0;entryY=0.5;entryDx=0;entryDy=0;" parent="1" source="AxJ9_XIlFzwpc8d086Lr-1" target="AxJ9_XIlFzwpc8d086Lr-3" edge="1">
          <mxGeometry relative="1" as="geometry" />
        </mxCell>
        <mxCell id="AxJ9_XIlFzwpc8d086Lr-1" value="6.17 merge window" style="rounded=1;whiteSpace=wrap;html=1;fillColor=none;" parent="1" vertex="1">
          <mxGeometry x="250" y="130" width="120" height="50" as="geometry" />
        </mxCell>
        <mxCell id="AxJ9_XIlFzwpc8d086Lr-3" value="6.17-rc1" style="rounded=1;whiteSpace=wrap;html=1;fillColor=none;" parent="1" vertex="1">
          <mxGeometry x="650" y="130" width="170" height="50" as="geometry" />
        </mxCell>
        <mxCell id="AxJ9_XIlFzwpc8d086Lr-5" value="将持续2周左右的时间接收新特性，新驱动等" style="text;html=1;align=center;verticalAlign=middle;resizable=0;points=[];autosize=1;strokeColor=none;fillColor=none;" parent="1" vertex="1">
          <mxGeometry x="380" y="120" width="260" height="30" as="geometry" />
        </mxCell>
        <mxCell id="AxJ9_XIlFzwpc8d086Lr-6" value="从此刻开始，6.17版本将不再接受任何新特性，新驱动。&lt;div&gt;仅接受bug fix或者小更改&lt;/div&gt;" style="text;html=1;align=center;verticalAlign=middle;whiteSpace=wrap;rounded=0;" parent="1" vertex="1">
          <mxGeometry x="650" y="50" width="170" height="70" as="geometry" />
        </mxCell>
      </root>
    </mxGraphModel>
  </diagram>
</mxfile>
